<svg width="308" height="444" viewBox="0 0 308 444" fill="none" xmlns="http://www.w3.org/2000/svg">
<path d="M248.06 329.546H303C303 329.546 303 306.966 303 258.283C303 209.601 246.3 182 227.75 182C209.2 182 107.86 182 72.7308 182C44.8799 182 2 222.665 2 259.545C2 284.649 2 330.571 2 330.571H57.9383V442H248.086V329.573L248.06 329.546Z" fill="#784426"/>
<path d="M152.026 307C152.026 307 225.173 307 229.689 307C240.978 307 243 297.846 243 254.749C243 209.922 232.314 186 218.399 186C205.849 186 160.454 186 152 186C140.868 186 97.5733 186 85.601 186C71.6858 186 61 209.922 61 254.749C61 299.577 63.0479 307 74.3113 307C78.8272 307 151.974 307 151.974 307H152.026Z" fill="#ED832A"/>
<path d="M306 442H302.615H152.307H2C2 442 2 297.728 2 253.389C2 213.824 52.3561 182 77.1537 182.026C96.2046 182.026 152.307 182 152.307 182C152.307 182 208.437 182.026 227.461 182.026C252.259 182 302.615 213.798 302.615 253.389V263.647" stroke="#5A2A14" stroke-width="4" stroke-linecap="round" stroke-linejoin="round"/>
<path d="M303 312C303 342.27 303 376.405 303 402" stroke="#5A2A14" stroke-width="4" stroke-linecap="round" stroke-linejoin="round"/>
<path d="M152.5 182C198.063 182 235 141.706 235 92C235 42.2944 198.063 2 152.5 2C106.936 2 70 42.2944 70 92C70 141.706 106.936 182 152.5 182Z" stroke="#5A2A14" stroke-width="4" stroke-miterlimit="10"/>
<path d="M248 301V442" stroke="#5A2A14" stroke-width="4" stroke-linecap="round" stroke-linejoin="round"/>
<path d="M303 331H248" stroke="#5A2A14" stroke-width="4" stroke-miterlimit="10"/>
<path d="M58 301V442" stroke="#5A2A14" stroke-width="4" stroke-linecap="round" stroke-linejoin="round"/>
<path d="M3 331H58" stroke="#5A2A14" stroke-width="4" stroke-miterlimit="10"/>
<path d="M218.778 267H176.222C172.233 267 169 270.176 169 274.094V289.906C169 293.824 172.233 297 176.222 297H218.778C222.767 297 226 293.824 226 289.906V274.094C226 270.176 222.767 267 218.778 267Z" fill="white" stroke="#5A2A15" stroke-width="3" stroke-miterlimit="10"/>
</svg>
