<?xml version="1.0" encoding="utf-8"?>
<!-- Generator: Adobe Illustrator 28.3.0, SVG Export Plug-In . SVG Version: 6.00 Build 0)  -->
<svg version="1.1" id="Слой_1" xmlns="http://www.w3.org/2000/svg" xmlns:xlink="http://www.w3.org/1999/xlink" x="0px" y="0px"
	 viewBox="0 0 30 30" style="enable-background:new 0 0 30 30;" xml:space="preserve">
<style type="text/css">
	.st0{fill:#763E17;}
</style>
<path class="st0" d="M7,13c0,2.4,0.9,4.6,2.3,6.3l-6,6c0,0,0,0,0,0c-0.4,0.4-0.4,1,0,1.4s1,0.4,1.4,0l6-6c1.7,1.4,3.9,2.3,6.3,2.3
	c5.5,0,10-4.5,10-10S22.5,3,17,3S7,7.5,7,13z M25,13c0,4.4-3.6,8-8,8s-8-3.6-8-8s3.6-8,8-8S25,8.6,25,13z"/>
</svg>
