<?xml version="1.0" encoding="utf-8"?>
<!-- Generator: Adobe Illustrator 28.3.0, SVG Export Plug-In . SVG Version: 6.00 Build 0)  -->
<svg version="1.1" id="Слой_1" xmlns="http://www.w3.org/2000/svg" xmlns:xlink="http://www.w3.org/1999/xlink" x="0px" y="0px"
	 viewBox="0 0 595.28 841.89" style="enable-background:new 0 0 595.28 841.89;" xml:space="preserve">
<style type="text/css">
	.st0{fill:#469BAE;}
	.st1{fill:#3CB7D6;}
	.st2{fill:none;stroke:#5A2A14;stroke-width:4;stroke-linecap:round;stroke-linejoin:round;stroke-miterlimit:10;}
	.st3{fill:none;stroke:#5A2A14;stroke-width:4;stroke-miterlimit:10;}
	.st4{fill:#E84531;stroke:#5A2A14;stroke-width:4;stroke-linecap:round;stroke-linejoin:round;stroke-miterlimit:10;}
	.st5{fill:none;stroke:#5A2A14;stroke-width:6;stroke-miterlimit:10;}
</style>
<g>
	<path class="st0" d="M425.67,129.62H130.36c-14.2,0-25.72,11.51-25.72,25.72v370.47c0,14.05,11.39,25.43,25.43,25.43h117.79
		l-21.64-29.65l-1.48-15.57l11.55-12.87l19.09-0.4l59.71,30.38l10.54-136.93l9.54-20.39l19.58-16.35l18.92-2.25l0.58-24.3
		l14.96-15.89l20.53,0.85l15.93,12.02V129.62z"/>
	<path class="st1" d="M425.67,129.62H130.36c-14.2,0-25.72,11.51-25.72,25.72v350.69h46.34h73.76l9.23-11.4l21.41-1.87l14.43,6.97
		l46.59,6.3l9.22-119.82l12.42-24.09l18.82-13.47l16.8-1.43l0.58-24.3l14.88-14.28l23.53,0.49l13,10.77V129.62z"/>
	<line class="st2" x1="425.67" y1="322.91" x2="425.67" y2="148.83"/>
	<path class="st2" d="M428.54,129.62h-2.87H130.36c-14.2,0-25.72,11.51-25.72,25.72v370.47c0,14.05,11.39,25.43,25.43,25.43h117.79"
		/>
	<line class="st3" x1="224.75" y1="506.03" x2="104.65" y2="506.03"/>
	<line class="st3" x1="316.41" y1="506.03" x2="282.01" y2="506.03"/>
	<polygon class="st4" points="156.08,506.29 156.08,608.59 186.03,588.24 215.42,608.59 215.42,506.29 	"/>
	<line class="st5" x1="176.99" y1="210.25" x2="295.91" y2="210.25"/>
	<line class="st5" x1="176.99" y1="255.46" x2="368.4" y2="255.46"/>
	<line class="st5" x1="176.99" y1="299.17" x2="368.4" y2="299.17"/>
	<path class="st2" d="M484.45,736.24v-84.4c2.64-9.23,21.95-49.23,25.62-64.81c3.52-14.93-4.17-134.2-5.68-140.04
		c-1.51-5.84-5.82-13.88-5.82-13.88"/>
	<path class="st2" d="M412.67,736.24h-90.99v-84.97l-93.82-127.16l-1.63-2.52c-0.97-1.49-1.48-3.23-1.48-5.01v-5.96
		c0-3.87,1.42-7.61,4-10.5l3.3-3.7c2.73-3.06,6.63-4.81,10.73-4.81h4.93c4.23,0,8.39,1.01,12.15,2.95l55.25,28.57l10.54-136.93
		c3.96-16.96,21.29-43.14,48.04-39l0.57,112.47"/>
	<path class="st2" d="M373.67,347.21v-19.4c0,0,4.9-21.48,26.75-21.48s28.64,22.23,29.01,29.39c0.38,7.16,4.14,120.19,4.14,120.19"
		/>
	<path class="st2" d="M473.14,480.03V363.98c0,0-6.03-30.9-43.71-28.26"/>
</g>
</svg>
