<?xml version="1.0" encoding="utf-8"?>
<!-- Generator: Adobe Illustrator 28.3.0, SVG Export Plug-In . SVG Version: 6.00 Build 0)  -->
<svg version="1.1" id="стандарты" xmlns="http://www.w3.org/2000/svg" xmlns:xlink="http://www.w3.org/1999/xlink" x="0px"
	 y="0px" viewBox="0 0 595.28 841.89" style="enable-background:new 0 0 595.28 841.89;" xml:space="preserve">
<style type="text/css">
	.st0{fill:#DB1F17;}
	.st1{fill:#FFFFFE;}
	.st2{fill:none;stroke:#5B2A14;stroke-linecap:round;stroke-miterlimit:10;}
	.st3{fill:#EE8444;}
	.st4{fill:#F7A71D;}
	.st5{fill:#F5A71B;}
	.st6{fill:none;stroke:#5A2A14;stroke-linecap:round;stroke-linejoin:round;stroke-miterlimit:10;}
	.st7{fill:#F5A91D;}
	.st8{fill:#F5A71A;}
	.st9{fill:#F08139;}
	.st10{fill:#FEFAF9;}
	.st11{fill:#2C9642;}
	.st12{fill:#FEFAF9;stroke:#5A2A14;stroke-linecap:round;stroke-linejoin:round;stroke-miterlimit:10;}
	.st13{fill:none;stroke:#5A2A14;stroke-width:2;stroke-miterlimit:10;}
</style>
<g>
	<path class="st0" d="M559.97,808.99H39.31c-5.68,0-10.29-4.61-10.29-10.29V114.09c0-5.68,4.61-10.29,10.29-10.29h520.66
		c5.68,0,10.29,4.61,10.29,10.29v684.62C570.25,804.39,565.65,808.99,559.97,808.99z"/>
	<path class="st1" d="M523.15,753.99H70.74c-2.62,0-4.75-2.13-4.75-4.75V148.75c0-2.62,2.13-4.75,4.75-4.75h452.4
		c2.62,0,4.75,2.13,4.75,4.75v600.49C527.9,751.86,525.77,753.99,523.15,753.99z"/>
	<path class="st2" d="M66,161.05c0,0,0,570.85,0,580.61c0,9.75,3.93,12.05,9.16,12.38S510.27,754,510.27,754"/>
	<path class="st3" d="M480.78,151.85H118.49c-3.65,0-6.61-2.96-6.61-6.61v-3.97c0-3.65,2.96-6.61,6.61-6.61h362.29
		c3.65,0,6.61,2.96,6.61,6.61v3.97C487.39,148.89,484.43,151.85,480.78,151.85z"/>
	<path class="st4" d="M144.5,135.53c0-31.09,8.74-47.75,45.84-47.75c28.21,0,109.3,0,109.3,0v47.75H144.5z"/>
	<path class="st4" d="M454.78,135.53c0-31.09-8.74-47.75-45.84-47.75c-28.21,0-109.3,0-109.3,0v47.75H454.78z"/>
	<path class="st5" d="M299.64,32.99c-19.15,0-34.67,15.52-34.67,34.67c0,10.71,0,34.67,0,34.67s26.24,0,34.67,0
		c8.66,0,34.67,0,34.67,0s0-24.19,0-34.67C334.31,48.51,318.79,32.99,299.64,32.99z M299.64,78.44c-8.2,0-14.84-6.64-14.84-14.84
		s6.64-14.84,14.84-14.84s14.84,6.64,14.84,14.84S307.83,78.44,299.64,78.44z"/>
	<path class="st6" d="M276.79,41.6c4.19-4.49,25.79-16.39,45.69,0c5.48,3.88,10.06,13.43,11.22,19.61
		c0.87,4.66,0.61,26.58,0.61,26.58h75.84c24.57,0.71,45.29,6.11,44.63,47.75H144.5"/>
	<path class="st6" d="M287.6,54.94c0,0-6.62,10.16,0.95,18.49c7.56,8.33,17.33,3.61,17.33,3.61"/>
	<polygon class="st7" points="399.27,689.09 420.62,787.18 439.83,755.03 472.55,769.97 449.02,674.73 	"/>
	<polygon class="st8" points="350.79,676.97 326.11,776.13 362.69,757.18 362.69,757.18 384.72,784.95 399.27,689.75 	"/>
	<polyline class="st6" points="422.06,787.28 439.83,755.03 472.55,769.97 451.06,683.01 	"/>
	<polyline class="st6" points="327.47,776.07 362.85,757.18 384.78,784.95 397.55,700.99 	"/>
	<g>
		<g>
			<g>
				<path class="st9" d="M373.29,703.09l25.05-17.53c1.48-1.04,1.11-3.34-0.63-3.84l-36.76-10.71c-1.74-0.51-3.29,1.23-2.6,2.9
					l11.71,28.24C370.59,703.42,372.16,703.88,373.29,703.09z"/>
			</g>
			<g>
				<path class="st9" d="M347.56,694.9l28.62-10.75c1.7-0.64,1.9-2.96,0.34-3.88l-32.94-19.51c-1.56-0.92-3.49,0.37-3.24,2.16
					l4.32,30.27C344.86,694.55,346.27,695.38,347.56,694.9z"/>
			</g>
			<g>
				<path class="st9" d="M324.67,680.57l30.39-3.3c1.8-0.2,2.58-2.39,1.29-3.67l-27.05-27.09c-1.28-1.28-3.48-0.51-3.67,1.29
					l-3.34,30.39C322.14,679.56,323.3,680.72,324.67,680.57z"/>
			</g>
			<g>
				<path class="st9" d="M306.07,661l30.26,4.36c1.79,0.26,3.09-1.67,2.17-3.24l-19.47-32.97c-0.92-1.56-3.24-1.36-3.88,0.34
					l-10.79,28.6C303.87,659.39,304.71,660.8,306.07,661z"/>
			</g>
			<g>
				<path class="st9" d="M292.92,637.42l28.22,11.75c1.67,0.7,3.41-0.85,2.9-2.59l-10.66-36.77c-0.5-1.74-2.8-2.12-3.84-0.64
					l-17.57,25.02C291.19,635.31,291.65,636.89,292.92,637.42z"/>
			</g>
			<g>
				<path class="st9" d="M286.05,611.3l24.41,18.4c1.45,1.09,3.51,0.02,3.46-1.79l-1.18-38.27c-0.06-1.81-2.18-2.75-3.56-1.57
					l-23.24,19.87C284.9,608.83,284.95,610.47,286.05,611.3z"/>
			</g>
			<g>
				<path class="st9" d="M285.88,584.3l19.07,23.9c1.13,1.42,3.4,0.89,3.79-0.87l8.38-37.36c0.4-1.77-1.43-3.21-3.06-2.41
					l-27.45,13.46C285.38,581.62,285.02,583.22,285.88,584.3z"/>
			</g>
			<g>
				<path class="st9" d="M292.44,558.11l12.53,27.89c0.74,1.65,3.07,1.71,3.89,0.1l17.41-34.1c0.82-1.61-0.59-3.46-2.36-3.1
					l-29.93,6.21C292.62,555.39,291.88,556.85,292.44,558.11z"/>
			</g>
			<g>
				<path class="st9" d="M305.31,534.37l5.2,30.13c0.31,1.79,2.55,2.42,3.75,1.06l25.34-28.7c1.2-1.36,0.29-3.5-1.52-3.59
					l-30.54-1.43C306.16,531.78,305.07,533.01,305.31,534.37z"/>
			</g>
			<g>
				<path class="st9" d="M323.67,514.57l-2.46,30.47c-0.15,1.81,1.87,2.98,3.36,1.96l31.68-21.5c1.5-1.02,1.15-3.32-0.58-3.85
					l-29.23-8.98C325.14,512.28,323.78,513.2,323.67,514.57z"/>
			</g>
			<g>
				<path class="st9" d="M346.38,499.97l-9.96,28.91c-0.59,1.71,1.07,3.35,2.77,2.74l36.03-12.94c1.71-0.61,1.94-2.93,0.4-3.87
					l-26.08-15.96C348.37,498.11,346.83,498.66,346.38,499.97z"/>
			</g>
			<g>
				<path class="st9" d="M372.01,491.47l-16.83,25.52c-1,1.51,0.2,3.51,2,3.34l38.12-3.58c1.8-0.17,2.61-2.35,1.35-3.65
					l-21.29-21.95C374.4,490.16,372.77,490.32,372.01,491.47z"/>
			</g>
			<g>
				<path class="st9" d="M398.95,489.61l-22.65,20.53c-1.34,1.22-0.68,3.45,1.11,3.73l37.81,6.02c1.79,0.28,3.11-1.63,2.21-3.2
					l-15.16-26.55C401.59,488.94,399.97,488.68,398.95,489.61z"/>
			</g>
			<g>
				<path class="st9" d="M425.5,494.51l-27.05,14.26c-1.6,0.85-1.51,3.17,0.15,3.89l35.13,15.23c1.66,0.72,3.42-0.8,2.94-2.55
					l-8.08-29.49C428.23,494.52,426.72,493.87,425.5,494.51z"/>
			</g>
			<g>
				<path class="st9" d="M450,505.86l-29.74,7.08c-1.76,0.42-2.26,2.69-0.82,3.81l30.24,23.49c1.43,1.11,3.51,0.07,3.48-1.74
					l-0.49-30.57C452.64,506.54,451.35,505.54,450,505.86z"/>
			</g>
			<g>
				<path class="st9" d="M470.91,522.94l-30.57-0.54c-1.81-0.03-2.85,2.05-1.75,3.48l23.45,30.27c1.11,1.43,3.38,0.94,3.81-0.82
					l7.12-29.73C473.3,524.26,472.29,522.97,470.91,522.94z"/>
			</g>
			<g>
				<path class="st9" d="M486.92,544.69l-29.47-8.12c-1.75-0.48-3.27,1.27-2.56,2.94l15.18,35.15c0.72,1.66,3.04,1.76,3.89,0.15
					l14.29-27.03C488.9,546.56,488.25,545.06,486.92,544.69z"/>
			</g>
			<g>
				<path class="st9" d="M497.01,569.74l-26.53-15.2c-1.57-0.9-3.49,0.42-3.21,2.21l5.96,37.82c0.28,1.79,2.51,2.46,3.73,1.12
					l20.57-22.62C498.46,572.04,498.2,570.42,497.01,569.74z"/>
			</g>
			<g>
				<path class="st9" d="M500.55,596.5l-21.92-21.32c-1.3-1.26-3.48-0.46-3.66,1.34l-3.63,38.11c-0.17,1.8,1.82,3,3.34,2.01
					l25.55-16.8C501.39,599.1,501.54,597.47,500.55,596.5z"/>
			</g>
			<g>
				<path class="st9" d="M497.33,623.31l-15.93-26.1c-0.94-1.55-3.26-1.31-3.87,0.39l-12.99,36.01c-0.62,1.7,1.02,3.36,2.73,2.78
					l28.92-9.92C497.49,626.03,498.05,624.49,497.33,623.31z"/>
			</g>
			<g>
				<path class="st9" d="M487.54,648.48l-8.94-29.24c-0.53-1.73-2.83-2.08-3.85-0.58l-21.54,31.65c-1.02,1.5,0.15,3.51,1.96,3.37
					l30.48-2.41C487.02,651.15,487.95,649.8,487.54,648.48z"/>
			</g>
			<g>
				<path class="st9" d="M471.8,670.42l-1.38-30.54c-0.08-1.81-2.22-2.72-3.58-1.52l-28.74,25.3c-1.36,1.2-0.73,3.44,1.06,3.75
					l30.12,5.24C470.64,672.88,471.87,671.8,471.8,670.42z"/>
			</g>
			<g>
				<path class="st9" d="M451.1,687.76l6.26-29.93c0.37-1.77-1.48-3.19-3.09-2.37l-34.13,17.36c-1.62,0.82-1.56,3.15,0.09,3.89
					l27.87,12.57C449.36,689.85,450.82,689.11,451.1,687.76z"/>
			</g>
			<g>
				<path class="st9" d="M426.74,699.4l13.5-27.43c0.8-1.63-0.64-3.46-2.41-3.06l-37.37,8.33c-1.77,0.39-2.29,2.66-0.88,3.79
					l23.87,19.1C424.53,701,426.13,700.64,426.74,699.4z"/>
			</g>
			<g>
				<path class="st9" d="M400.25,704.62l19.9-23.21c1.18-1.38,0.24-3.51-1.57-3.56l-38.27-1.23c-1.81-0.06-2.88,2.01-1.8,3.46
					l18.37,24.44C397.71,705.62,399.35,705.67,400.25,704.62z"/>
			</g>
		</g>
		<g>
			<g>
				<path class="st9" d="M417.27,694.85c0,0-4.12-2.71-5.74-2.4c-1.76,0.34-5,4.47-5,4.47l-1.43-7.55l10.7-2.1L417.27,694.85z"/>
			</g>
			<g>
				<path class="st9" d="M392.21,697.86c0,0-3.32-3.65-4.96-3.75c-1.79-0.11-5.95,3.09-5.95,3.09l0.49-7.67l10.89,0.63
					L392.21,697.86z"/>
			</g>
			<g>
				<path class="st9" d="M367.19,694.54c0,0-2.31-4.36-3.87-4.87c-1.7-0.55-6.54,1.51-6.54,1.51l2.38-7.3l10.39,3.32L367.19,694.54z
					"/>
			</g>
			<g>
				<path class="st9" d="M343.77,685.1c0,0-1.15-4.8-2.54-5.68c-1.51-0.96-6.71-0.16-6.71-0.16l4.13-6.48l9.24,5.8L343.77,685.1z"/>
			</g>
			<g>
				<path class="st9" d="M323.45,670.13c0,0,0.08-4.94-1.05-6.13c-1.23-1.3-6.46-1.82-6.46-1.82l5.61-5.25l7.51,7.91L323.45,670.13z
					"/>
			</g>
			<g>
				<path class="st9" d="M307.48,650.58c0,0,1.3-4.76,0.51-6.2c-0.87-1.57-5.8-3.37-5.8-3.37l6.74-3.69l5.3,9.53L307.48,650.58z"/>
			</g>
			<g>
				<path class="st9" d="M296.87,627.68c0,0,2.45-4.29,2.03-5.88c-0.45-1.73-4.78-4.71-4.78-4.71l7.44-1.9l2.77,10.55L296.87,627.68
					z"/>
			</g>
			<g>
				<path class="st9" d="M292.3,602.85c0,0,3.44-3.54,3.43-5.19c0-1.79-3.46-5.75-3.46-5.75l7.68,0.01l0.06,10.91L292.3,602.85z"/>
			</g>
			<g>
				<path class="st9" d="M294.04,577.67c0,0,4.21-2.58,4.61-4.17c0.44-1.74-1.92-6.43-1.92-6.43l7.44,1.92l-2.66,10.58
					L294.04,577.67z"/>
			</g>
			<g>
				<path class="st9" d="M301.99,553.71c0,0,4.72-1.45,5.51-2.89c0.86-1.57-0.26-6.7-0.26-6.7l6.73,3.71l-5.21,9.59L301.99,553.71z"
					/>
			</g>
			<g>
				<path class="st9" d="M315.64,532.49c0,0,4.93-0.23,6.05-1.43c1.22-1.31,1.42-6.56,1.42-6.56l5.59,5.27l-7.43,7.99L315.64,532.49
					z"/>
			</g>
			<g>
				<path class="st9" d="M334.15,515.32c0,0,4.83,1,6.22,0.12c1.51-0.96,3-6,3-6l4.11,6.49l-9.18,5.89L334.15,515.32z"/>
			</g>
			<g>
				<path class="st9" d="M356.35,503.3c0,0,4.43,2.17,5.99,1.66c1.7-0.56,4.4-5.06,4.4-5.06l2.36,7.31l-10.36,3.42L356.35,503.3z"/>
			</g>
			<g>
				<path class="st9" d="M380.83,497.17c0,0,3.75,3.21,5.39,3.1c1.79-0.12,5.52-3.81,5.52-3.81l0.47,7.67l-10.88,0.74L380.83,497.17
					z"/>
			</g>
			<g>
				<path class="st9" d="M406.08,497.33c0,0,2.84,4.04,4.45,4.34c1.76,0.33,6.3-2.32,6.3-2.32l-1.45,7.54l-10.73-1.99L406.08,497.33
					z"/>
			</g>
			<g>
				<path class="st9" d="M430.49,503.76c0,0,1.74,4.62,3.23,5.31c1.62,0.76,6.67-0.68,6.67-0.68l-3.28,6.95l-9.89-4.59
					L430.49,503.76z"/>
			</g>
			<g>
				<path class="st9" d="M452.53,516.06c0,0,0.54,4.91,1.81,5.95c1.38,1.14,6.63,1,6.63,1l-4.9,5.91l-8.44-6.91L452.53,516.06z"/>
			</g>
			<g>
				<path class="st9" d="M470.82,533.45c0,0-0.7,4.89,0.27,6.21c1.06,1.45,6.18,2.62,6.18,2.62l-6.22,4.51l-6.46-8.79L470.82,533.45
					z"/>
			</g>
			<g>
				<path class="st9" d="M484.22,554.85c0,0-1.89,4.56-1.28,6.09c0.66,1.66,5.33,4.07,5.33,4.07l-7.15,2.82l-4.07-10.12
					L484.22,554.85z"/>
			</g>
			<g>
				<path class="st9" d="M491.87,578.9c0,0-2.96,3.95-2.75,5.58c0.23,1.78,4.15,5.27,4.15,5.27l-7.62,0.95l-1.42-10.82L491.87,578.9
					z"/>
			</g>
			<g>
				<path class="st9" d="M493.3,604.1c0,0-3.85,3.09-4.05,4.72c-0.22,1.78,2.71,6.14,2.71,6.14l-7.62-0.97l1.31-10.83L493.3,604.1z"
					/>
			</g>
			<g>
				<path class="st9" d="M488.41,628.87c0,0-4.5,2.03-5.1,3.56c-0.66,1.67,1.1,6.62,1.1,6.62l-7.14-2.84l3.96-10.16L488.41,628.87z"
					/>
			</g>
			<g>
				<path class="st9" d="M477.52,651.64c0,0-4.86,0.85-5.82,2.18c-1.05,1.45-0.58,6.68-0.58,6.68l-6.21-4.52l6.37-8.86
					L477.52,651.64z"/>
			</g>
			<g>
				<path class="st9" d="M461.31,670.99c0,0-4.92-0.39-6.18,0.66c-1.38,1.14-2.23,6.33-2.23,6.33l-4.89-5.93l8.37-7L461.31,670.99z"
					/>
			</g>
			<g>
				<path class="st9" d="M440.8,685.7c0,0-4.67-1.6-6.15-0.9c-1.62,0.77-3.73,5.58-3.73,5.58l-3.26-6.96l9.85-4.69L440.8,685.7z"/>
			</g>
		</g>
	</g>
	<circle class="st10" cx="392.83" cy="597.16" r="83.3"/>
	<path class="st6" d="M468.85,631.26c4.68-10.41,7.28-21.95,7.28-34.1c0-46.01-37.29-83.3-83.3-83.3c-19.6,0-37.6,6.78-51.82,18.11"
		/>
	<path class="st6" d="M325.59,548.01c-10.08,13.78-16.05,30.76-16.05,49.14c0,46.01,37.29,83.3,83.3,83.3
		c3.13,0,6.22-0.19,9.27-0.53"/>
	<path class="st11" d="M387.58,632.66l-37.76-37.76c-1.12-1.12-1.12-2.93,0-4.05l11.53-11.53c1.12-1.12,2.93-1.12,4.05,0
		l37.75,37.76c1.12,1.12,1.12,2.93,0,4.05l-11.53,11.53C390.52,633.78,388.7,633.78,387.58,632.66z"/>
	<path class="st11" d="M446.9,577.23l-55.44,55.44c-1.12,1.12-2.93,1.12-4.05,0l-11.53-11.53c-1.12-1.12-1.12-2.93,0-4.05
		l55.44-55.44c1.12-1.12,2.93-1.12,4.05,0l11.53,11.53C448.02,574.3,448.02,576.11,446.9,577.23z"/>
	<path class="st6" d="M351.48,596.54l32.32,32.75c3.23,3,8.25,2.97,11.44-0.07l49.17-49.49"/>
	<line class="st12" x1="369.42" y1="583.34" x2="389.52" y2="603.44"/>
	<line class="st13" x1="125.69" y1="200.18" x2="473.58" y2="200.18"/>
	<line class="st13" x1="125.69" y1="223.56" x2="473.58" y2="223.56"/>
	<line class="st13" x1="125.69" y1="246.94" x2="299.64" y2="246.94"/>
	<line class="st13" x1="125.69" y1="270.32" x2="473.58" y2="270.32"/>
	<line class="st13" x1="125.69" y1="293.7" x2="256.74" y2="293.7"/>
	<line class="st13" x1="290.24" y1="293.7" x2="420.7" y2="293.7"/>
	<line class="st13" x1="125.69" y1="317.08" x2="473.58" y2="317.08"/>
	<line class="st13" x1="125.69" y1="340.46" x2="473.58" y2="340.46"/>
	<line class="st13" x1="125.69" y1="363.84" x2="346.06" y2="363.84"/>
	<line class="st13" x1="125.69" y1="387.22" x2="346.06" y2="387.22"/>
	<line class="st13" x1="125.69" y1="410.6" x2="473.58" y2="410.6"/>
	<line class="st13" x1="125.69" y1="433.98" x2="191.22" y2="433.98"/>
	<line class="st13" x1="243.81" y1="433.98" x2="473.58" y2="433.98"/>
	<line class="st13" x1="125.69" y1="457.36" x2="412.47" y2="457.36"/>
	<line class="st13" x1="125.69" y1="480.74" x2="193.86" y2="480.74"/>
	<line class="st13" x1="125.69" y1="504.12" x2="250.86" y2="504.12"/>
	<line class="st13" x1="125.69" y1="527.51" x2="250.86" y2="527.51"/>
	<line class="st13" x1="125.69" y1="620.94" x2="177.41" y2="620.94"/>
	<line class="st13" x1="125.69" y1="643.27" x2="250.86" y2="643.27"/>
	<line class="st13" x1="125.69" y1="666.78" x2="205.61" y2="666.78"/>
	<line class="st13" x1="125.69" y1="689.7" x2="205.61" y2="689.7"/>
</g>
</svg>
