<?xml version="1.0" encoding="utf-8"?>
<!-- Generator: Adobe Illustrator 28.3.0, SVG Export Plug-In . SVG Version: 6.00 Build 0)  -->
<svg version="1.1" id="Слой_1" xmlns="http://www.w3.org/2000/svg" xmlns:xlink="http://www.w3.org/1999/xlink" x="0px" y="0px"
	 viewBox="0 0 595.28 841.89" style="enable-background:new 0 0 595.28 841.89;" xml:space="preserve">
<style type="text/css">
	.st0{fill:#3CB7D6;}
	.st1{fill:none;stroke:#5A2A14;stroke-width:4;stroke-linecap:round;stroke-linejoin:round;stroke-miterlimit:10;}
	.st2{fill:none;stroke:#5A2A14;stroke-width:4;stroke-miterlimit:10;}
	.st3{display:none;fill:none;stroke:#5A2A14;stroke-width:4;stroke-miterlimit:10;}
	.st4{fill:#784426;}
	.st5{fill:#ED832A;}
	.st6{fill:#FFFFFF;stroke:#5A2A15;stroke-width:3;stroke-miterlimit:10;}
	.st7{fill:#148B38;}
	.st8{fill:#F5A91D;}
</style>
<g>
	<path class="st0" d="M83.98,580.92H47.24c0,0,0-15.1,0-47.64s37.91-51,50.33-51s80.19,0,103.68,0c18.62,0,47.31,27.18,47.31,51.84
		c0,16.78,0,47.48,0,47.48h-37.41v74.49H83.98V580.92z"/>
	<path class="st1" d="M44.98,656.08h2.26H147.9h100.66c0,0,0-96.63,0-126.32c0-26.51-33.72-47.81-50.33-47.79
		c-12.75,0-50.33-0.02-50.33-0.02s-37.58,0.02-50.33,0.02c-16.61-0.02-50.33,21.28-50.33,47.79c0,2,0,4.31,0,6.88"/>
	<path class="st1" d="M47.24,569.01c0,20.36,0,43.33,0,60.56"/>
	<ellipse class="st2" cx="147.9" cy="421.71" rx="55.36" ry="60.23"/>
	<line class="st3" x1="77.12" y1="325.44" x2="77.12" y2="424.42"/>
	<line class="st1" x1="83.98" y1="561.79" x2="83.98" y2="656.08"/>
	<line class="st2" x1="47.24" y1="581.59" x2="83.98" y2="581.59"/>
	<line class="st3" x1="197.91" y1="325.44" x2="197.91" y2="424.42"/>
	<line class="st1" x1="211.14" y1="561.79" x2="211.14" y2="656.08"/>
	<line class="st2" x1="247.88" y1="581.59" x2="211.14" y2="581.59"/>
	<path class="st4" d="M511.3,582.56h36.74c0,0,0-15.1,0-47.64s-37.91-51-50.33-51c-12.41,0-80.19,0-103.68,0
		c-18.62,0-47.31,27.18-47.31,51.84c0,16.78,0,47.48,0,47.48h37.41v74.49H511.3V582.56z"/>
	<path class="st5" d="M447.38,567.17c0,0,48.96,0,51.98,0c7.55,0,8.91-6.14,8.91-35c0-30.03-7.15-46.05-16.46-46.05
		c-8.4,0-38.78,0-44.43,0c-7.44,0-36.43,0-44.43,0c-9.31,0-16.46,16.02-16.46,46.05c0,28.85,1.36,35,8.91,35
		C398.42,567.17,447.38,567.17,447.38,567.17z"/>
	<path class="st1" d="M550.3,657.71h-2.26H447.38H346.72c0,0,0-96.63,0-126.32c0-26.51,33.72-47.81,50.33-47.79
		c12.75,0,50.33-0.02,50.33-0.02s37.58,0.02,50.33,0.02c16.61-0.02,50.33,21.28,50.33,47.79c0,2,0,4.31,0,6.88"/>
	<path class="st1" d="M548.04,570.65c0,20.36,0,43.33,0,60.56"/>
	<ellipse class="st2" cx="447.38" cy="423.35" rx="55.36" ry="60.23"/>
	<line class="st3" x1="498.07" y1="327.08" x2="498.07" y2="426.06"/>
	<line class="st1" x1="511.3" y1="563.43" x2="511.3" y2="657.71"/>
	<line class="st2" x1="548.04" y1="583.23" x2="511.3" y2="583.23"/>
	<line class="st3" x1="377.28" y1="327.08" x2="377.28" y2="426.06"/>
	<line class="st1" x1="384.13" y1="563.43" x2="384.13" y2="657.71"/>
	<line class="st2" x1="347.39" y1="583.23" x2="384.13" y2="583.23"/>
	<path class="st6" d="M493.73,560.83h-32.17c-1.49,0-2.71-1.21-2.71-2.71v-14.72c0-1.49,1.21-2.71,2.71-2.71h32.17
		c1.49,0,2.71,1.21,2.71,2.71v14.72C496.44,559.62,495.22,560.83,493.73,560.83z"/>
	<path class="st7" d="M185.69,180.16c13.87-10.4,33.88-16.93,56.13-16.93c41.88,0,75.83,23.13,75.83,51.67s-33.95,51.67-75.83,51.67
		c-9.93,0-19.41-1.3-28.1-3.66l-28.27,19.77l-1.33-34.24c-11.31-9.02-18.13-20.74-18.13-33.53
		C165.99,201.52,173.45,189.33,185.69,180.16"/>
	<path class="st1" d="M203.26,170.4c11.3-4.56,24.48-7.17,38.57-7.17c41.88,0,75.83,23.13,75.83,51.67s-33.95,51.67-75.83,51.67
		c-9.93,0-19.41-1.3-28.1-3.66l-28.27,19.77l-1.33-34.24c-11.31-9.02-18.13-20.74-18.13-33.53c0-10.68,4.75-20.6,12.89-28.83"/>
	<line class="st2" x1="198.49" y1="203.83" x2="234.72" y2="203.83"/>
	<line class="st2" x1="244.61" y1="203.83" x2="275.54" y2="203.83"/>
	<line class="st2" x1="198.49" y1="216.53" x2="273.48" y2="216.53"/>
	<path class="st8" d="M241.82,328.76c0,28.54,33.95,51.67,75.83,51.67c9.93,0,19.41-1.3,28.1-3.66l28.27,19.77l1.33-34.24
		c11.31-9.02,18.13-20.74,18.13-33.53c0-28.54-33.95-51.67-75.83-51.67S241.82,300.22,241.82,328.76z"/>
	<path class="st1" d="M356.74,284.47c-11.41-4.69-24.79-7.38-39.09-7.38c-41.88,0-75.83,23.13-75.83,51.67
		c0,28.54,33.95,51.67,75.83,51.67c9.93,0,19.41-1.3,28.1-3.66l28.27,19.77l1.33-34.24c11.31-9.02,18.13-20.74,18.13-33.53
		c0-2.84-0.34-5.63-0.98-8.35"/>
	<line class="st2" x1="359.96" y1="313.33" x2="335.96" y2="313.33"/>
	<line class="st2" x1="327.17" y1="313.33" x2="274.85" y2="313.33"/>
	<line class="st2" x1="349.84" y1="326.03" x2="274.85" y2="326.03"/>
	<line class="st2" x1="318.27" y1="338.74" x2="274.85" y2="338.74"/>
</g>
</svg>
